<svg xmlns="http://www.w3.org/2000/svg" viewBox="0 0 48 48" fill="none">
  <rect width="48" height="48" rx="8" fill="#E5A00D"/>
  <path d="M24 8C15.163 8 8 15.163 8 24s7.163 16 16 16 16-7.163 16-16S32.837 8 24 8zm0 28c-6.627 0-12-5.373-12-12S17.373 12 24 12s12 5.373 12 12-5.373 12-12 12z" fill="white"/>
  <path d="M24 16c-4.418 0-8 3.582-8 8s3.582 8 8 8 8-3.582 8-8-3.582-8-8-8zm0 12c-2.209 0-4-1.791-4-4s1.791-4 4-4 4 1.791 4 4-1.791 4-4 4z" fill="white"/>
  <circle cx="24" cy="24" r="2" fill="white"/>
</svg>
